<?xml version="1.0" encoding="utf-8"?>
<!-- Generator: Adobe Illustrator 24.0.2, SVG Export Plug-In . SVG Version: 6.00 Build 0)  -->
<svg version="1.1" id="Слой_1" xmlns="http://www.w3.org/2000/svg" xmlns:xlink="http://www.w3.org/1999/xlink" x="0px" y="0px"
	 viewBox="0 0 15 9" style="enable-background:new 0 0 15 9;" xml:space="preserve">
<path d="M6.9,0.3L0.2,7C0.1,7.2,0,7.4,0,7.6C0,7.8,0.1,8,0.2,8.2l0.5,0.5C1.1,9,1.6,9,1.9,8.7l5.6-5.6l5.6,5.6
	c0.2,0.2,0.4,0.2,0.6,0.2c0.2,0,0.4-0.1,0.6-0.2l0.5-0.5C14.9,8,15,7.8,15,7.6c0-0.2-0.1-0.4-0.2-0.6L8.1,0.3
	C7.9,0.2,7.7,0.1,7.5,0.1C7.3,0.1,7.1,0.2,6.9,0.3z"/>
</svg>
